HIERARCHY
ROOT Pelvis
{
	OFFSET 0.000000 0.000000 0.000000
	CHANNELS 6 Xposition Yposition Zposition Xrotation Yrotation Zrotation
	JOINT LeftUpLeg_virtual
	{
		OFFSET 0.000000 0.000000 0.000000
		CHANNELS 3 Xrotation Yrotation Zrotation
		JOINT LeftUpLeg
		{
			OFFSET 18.735201 -5.666702 -4.541200
			CHANNELS 3 Xrotation Yrotation Zrotation
			JOINT LeftLeg
			{
				OFFSET -0.021200 -31.938179 0.493100
				CHANNELS 3 Xrotation Yrotation Zrotation
				JOINT LeftFoot
				{
					OFFSET 0.021200 -31.938179 -4.336299
					CHANNELS 3 Xrotation Yrotation Zrotation
					JOINT LeftToeBase
					{
						OFFSET 0.943001 -26.722000 15.023500
						CHANNELS 3 Xrotation Yrotation Zrotation
						End Site
						{
							OFFSET 0 0 0
						}
					}
				}
			}
		}
	}
	JOINT RightUpLeg_virtual
	{
		OFFSET 0.000000 0.000000 0.000000
		CHANNELS 3 Xrotation Yrotation Zrotation
		JOINT RightUpLeg
		{
			OFFSET -18.735201 -5.666702 -4.541200
			CHANNELS 3 Xrotation Yrotation Zrotation
			JOINT RightLeg
			{
				OFFSET 0.018946 -31.938133 0.493100
				CHANNELS 3 Xrotation Yrotation Zrotation
				JOINT RightFoot
				{
					OFFSET -0.018946 -31.938126 -4.336299
					CHANNELS 3 Xrotation Yrotation Zrotation
					JOINT RightToeBase
					{
						OFFSET -0.943001 -26.722004 15.023500
						CHANNELS 3 Xrotation Yrotation Zrotation
						End Site
						{
							OFFSET 0 0 0
						}
					}
				}
			}
		}
	}
	JOINT Hips_virtual
	{
		OFFSET 0.000000 0.000000 0.000000
		CHANNELS 3 Xrotation Yrotation Zrotation
		JOINT Hips
		{
			OFFSET -0.000000 -0.000000 -0.000000
			CHANNELS 3 Xrotation Yrotation Zrotation
			JOINT Spine
			{
				OFFSET 0.000000 10.199997 -0.299500
				CHANNELS 3 Xrotation Yrotation Zrotation
				JOINT Spine1
				{
					OFFSET 0.000000 11.900002 -1.516600
					CHANNELS 3 Xrotation Yrotation Zrotation
					JOINT Spine2
					{
						OFFSET 0.000000 13.600006 -2.842500
						CHANNELS 3 Xrotation Yrotation Zrotation
						JOINT Neck_virtual
						{
							OFFSET 0.000000 0.000000 0.000000
							CHANNELS 3 Xrotation Yrotation Zrotation
							JOINT Neck
							{
								OFFSET 0.000000 9.624100 -2.890100
								CHANNELS 3 Xrotation Yrotation Zrotation
								JOINT Head
								{
									OFFSET 0.000000 14.068802 -1.351900
									CHANNELS 3 Xrotation Yrotation Zrotation
									End Site
									{
										OFFSET 0 0 0
									}
								}
							}
						}
						JOINT LeftShoulder_virtual
						{
							OFFSET 0.000000 0.000000 0.000000
							CHANNELS 3 Xrotation Yrotation Zrotation
							JOINT LeftShoulder
							{
								OFFSET 15.263000 10.923401 -0.547700
								CHANNELS 3 Xrotation Yrotation Zrotation
								JOINT LeftArm
								{
									OFFSET 25.438599 -2.830597 -13.032500
									CHANNELS 3 Xrotation Yrotation Zrotation
									JOINT LeftForeArm
									{
										OFFSET 29.960503 0.000000 0.000000
										CHANNELS 3 Xrotation Yrotation Zrotation
										JOINT LeftHand
										{
											OFFSET 27.849251 0.000000 0.000000
											CHANNELS 3 Xrotation Yrotation Zrotation
											End Site
											{
												OFFSET 0 0 0
											}
										}
									}
								}
							}
						}
						JOINT RightShoulder_virtual
						{
							OFFSET 0.000000 0.000000 0.000000
							CHANNELS 3 Xrotation Yrotation Zrotation
							JOINT RightShoulder
							{
								OFFSET -15.263000 10.923401 -0.547700
								CHANNELS 3 Xrotation Yrotation Zrotation
								JOINT RightArm
								{
									OFFSET -25.438599 -2.830597 -13.032500
									CHANNELS 3 Xrotation Yrotation Zrotation
									JOINT RightForeArm
									{
										OFFSET -29.960503 0.000000 0.000000
										CHANNELS 3 Xrotation Yrotation Zrotation
										JOINT RightHand
										{
											OFFSET -27.849251 0.000000 0.000000
											CHANNELS 3 Xrotation Yrotation Zrotation
											End Site
											{
												OFFSET 0 0 0
											}
										}
									}
								}
							}
						}
					}
				}
			}
		}
	}
}
MOTION
Frames: 11
Frame Time: 0.03333333
-8.727711 84.264145 11.569687 0.000000 0.000000 0.000000 -2.692219 -30.140180 1.157734 -40.223821 19.876494 26.022628 48.260956 0.328448 2.816085 -6.575976 -2.277527 -12.139374 0.000000 0.000000 0.000000 -3.519055 -28.995410 0.963303 -38.042876 -2.275759 -21.061472 58.004487 -2.040572 1.732555 -19.900741 -3.871803 17.775069 0.000000 0.000000 0.000000 -3.203287 -29.059596 1.169893 -0.845783 -0.176070 -0.132381 8.599017 -1.116049 -3.462005 1.252008 -1.182833 -0.581851 0.000000 0.000000 0.000000 2.176300 0.943686 -1.304536 0.419726 -2.748695 1.108251 0.000000 0.000000 0.000000 1.332325 -0.061188 -1.110518 -1.123967 -4.684246 1.502913 -53.983968 -9.014794 -48.992356 -145.182078 -81.170071 -140.932006 0.000000 0.000000 0.000000 2.195316 2.843629 -1.575831 1.857335 5.336333 9.768319 -47.705712 50.452432 64.166335 102.460392 62.313032 -104.323176 0.000000 0.000000 0.000000 
-8.731674 84.261017 11.566566 0.000000 0.000000 0.000000 -2.690345 -30.138900 1.158823 -40.223592 19.874836 26.024409 48.246838 0.330616 2.813890 -6.615864 -2.263098 -12.154553 0.000000 0.000000 0.000000 -3.517627 -28.995304 0.962779 -38.032686 -2.274724 -21.055831 57.996127 -2.046034 1.733819 -19.892796 -3.870970 17.778158 0.000000 0.000000 0.000000 -3.201960 -29.060150 1.169707 -0.846242 -0.175319 -0.133354 8.588969 -1.115216 -3.458533 1.248872 -1.178551 -0.583640 0.000000 0.000000 0.000000 2.178978 0.947591 -1.309551 0.417034 -2.749389 1.110489 0.000000 0.000000 0.000000 1.345664 -0.059005 -1.118108 -1.122133 -4.700871 1.489752 -53.987164 -9.018382 -49.036537 -145.204440 -81.160932 -140.959764 0.000000 0.000000 0.000000 2.201009 2.850263 -1.578689 1.861076 5.352933 9.762579 -47.736599 50.454877 64.194995 102.407690 62.316433 -104.277290 0.000000 0.000000 0.000000 
-8.737005 84.252495 11.562447 0.000000 0.000000 0.000000 -2.688138 -30.133176 1.157078 -40.245414 19.879404 26.045427 48.254252 0.332685 2.809899 -6.679105 -2.251672 -12.171974 0.000000 0.000000 0.000000 -3.515166 -28.990226 0.959821 -38.022181 -2.270992 -21.032755 57.992602 -2.065056 1.735443 -19.891908 -3.881889 17.764187 0.000000 0.000000 0.000000 -3.199172 -29.056526 1.167559 -0.846569 -0.175091 -0.133858 8.568288 -1.110161 -3.452769 1.247899 -1.172793 -0.581022 0.000000 0.000000 0.000000 2.190414 0.953520 -1.313271 0.413456 -2.747683 1.114472 0.000000 0.000000 0.000000 1.358790 -0.053768 -1.124319 -1.118859 -4.716920 1.471139 -54.015636 -9.021371 -49.128079 -145.106262 -81.183246 -140.860972 0.000000 0.000000 0.000000 2.210123 2.859995 -1.577423 1.870682 5.380528 9.767669 -47.744286 50.437225 64.208238 102.286263 62.325681 -104.170104 0.000000 0.000000 0.000000 
-8.741848 84.239624 11.555805 0.000000 0.000000 0.000000 -2.684077 -30.123914 1.153986 -40.282192 19.887496 26.081205 48.274476 0.330065 2.804528 -6.743334 -2.251456 -12.197054 0.000000 0.000000 0.000000 -3.511707 -28.980158 0.955615 -38.018636 -2.267231 -20.995274 57.995771 -2.095407 1.736848 -19.900256 -3.901799 17.738254 0.000000 0.000000 0.000000 -3.194960 -29.048494 1.164620 -0.846455 -0.175250 -0.133607 8.541220 -1.100322 -3.444480 1.249089 -1.165953 -0.573445 0.000000 0.000000 0.000000 2.208700 0.961018 -1.315007 0.408090 -2.743802 1.120269 0.000000 0.000000 0.000000 1.372305 -0.045765 -1.128253 -1.113029 -4.725968 1.462112 -54.058307 -9.013501 -49.252559 -144.945043 -81.224815 -140.695463 0.000000 0.000000 0.000000 2.222442 2.872610 -1.571966 1.886657 5.413940 9.777650 -47.735335 50.407001 64.204933 102.144687 62.335243 -104.048240 0.000000 0.000000 0.000000 
-8.746672 84.223137 11.546841 0.000000 0.000000 0.000000 -2.678800 -30.109909 1.150339 -40.334419 19.895955 26.128580 48.306185 0.323291 2.797163 -6.784417 -2.262383 -12.226527 0.000000 0.000000 0.000000 -3.506153 -28.965340 0.951839 -38.026122 -2.263831 -20.949394 58.012553 -2.133110 1.737821 -19.920554 -3.927290 17.706762 0.000000 0.000000 0.000000 -3.188844 -29.033737 1.161959 -0.846163 -0.175360 -0.132778 8.513687 -1.084927 -3.435289 1.251741 -1.158647 -0.561418 0.000000 0.000000 0.000000 2.230625 0.970057 -1.314519 0.399653 -2.737893 1.128256 0.000000 0.000000 0.000000 1.384902 -0.035978 -1.130195 -1.102951 -4.726828 1.479274 -54.103776 -8.975568 -49.397048 -144.865184 -81.260994 -140.613350 0.000000 0.000000 0.000000 2.235827 2.886657 -1.563741 1.909314 5.446258 9.783656 -47.725899 50.376463 64.193642 102.005945 62.341568 -103.932154 0.000000 0.000000 0.000000 
-8.751938 84.202553 11.535152 0.000000 0.000000 0.000000 -2.671135 -30.089200 1.147482 -40.399182 19.903421 26.180436 48.347323 0.312321 2.789590 -6.810376 -2.282388 -12.256722 0.000000 0.000000 0.000000 -3.497649 -28.945157 0.950087 -38.046695 -2.259033 -20.901163 58.051567 -2.172909 1.736801 -19.951850 -3.954451 17.675888 0.000000 0.000000 0.000000 -3.180204 -29.012772 1.160246 -0.846094 -0.175284 -0.131746 8.493660 -1.065193 -3.426416 1.255120 -1.152590 -0.545829 0.000000 0.000000 0.000000 2.252831 0.979879 -1.311200 0.386745 -2.730283 1.138751 0.000000 0.000000 0.000000 1.395245 -0.025482 -1.130753 -1.086738 -4.721916 1.543397 -54.141188 -8.894639 -49.542767 -145.028152 -81.267742 -140.781960 0.000000 0.000000 0.000000 2.247645 2.900505 -1.554007 1.938164 5.471485 9.780261 -47.727593 50.357158 64.177776 101.883371 62.339376 -103.833963 0.000000 0.000000 0.000000 
-8.755043 84.177780 11.521103 0.000000 0.000000 0.000000 -2.658399 -30.062067 1.146504 -40.469725 19.903571 26.227047 48.389831 0.293495 2.785877 -6.845566 -2.312973 -12.291683 0.000000 0.000000 0.000000 -3.485298 -28.917778 0.950478 -38.076884 -2.252221 -20.856466 58.110566 -2.208427 1.731785 -19.990758 -3.979036 17.651282 0.000000 0.000000 0.000000 -3.168661 -28.988248 1.159427 -0.846426 -0.175167 -0.131337 8.488081 -1.042455 -3.419477 1.258152 -1.148075 -0.528375 0.000000 0.000000 0.000000 2.272008 0.990780 -1.305435 0.368236 -2.721063 1.151861 0.000000 0.000000 0.000000 1.403339 -0.014770 -1.130185 -1.062960 -4.716619 1.666925 -54.175227 -8.774667 -49.677711 -145.494736 -81.238659 -141.264732 0.000000 0.000000 0.000000 2.255155 2.914287 -1.544414 1.970442 5.483583 9.765847 -47.741830 50.348989 64.155414 101.787304 62.321576 -103.764398 0.000000 0.000000 0.000000 
-8.756855 84.150993 11.506660 0.000000 0.000000 0.000000 -2.640265 -30.029432 1.146895 -40.545779 19.896537 26.268954 48.435351 0.266839 2.785651 -6.897189 -2.351149 -12.330322 0.000000 0.000000 0.000000 -3.468254 -28.883610 0.952418 -38.111916 -2.249313 -20.820964 58.180282 -2.236210 1.725344 -20.038904 -3.999935 17.638349 0.000000 0.000000 0.000000 -3.152872 -28.961252 1.158735 -0.846843 -0.175493 -0.131781 8.501650 -1.016801 -3.416162 1.260471 -1.144121 -0.510276 0.000000 0.000000 0.000000 2.286868 1.002934 -1.298485 0.344338 -2.710843 1.167188 0.000000 0.000000 0.000000 1.408592 -0.003808 -1.128911 -1.032359 -4.717299 1.849398 -54.220446 -8.621307 -49.794029 -146.269935 -81.178328 -142.067743 0.000000 0.000000 0.000000 2.255648 2.928035 -1.535846 2.001549 5.478085 9.752055 -47.753339 50.338549 64.125094 101.744438 62.281169 -103.751277 0.000000 0.000000 0.000000 
-8.756581 84.124657 11.491913 0.000000 0.000000 0.000000 -2.618957 -29.990961 1.146491 -40.636593 19.891095 26.314957 48.492673 0.239370 2.783614 -6.960371 -2.390106 -12.364099 0.000000 0.000000 0.000000 -3.448478 -28.844206 0.953050 -38.151651 -2.259215 -20.799965 58.251603 -2.255189 1.722735 -20.097073 -4.017550 17.639059 0.000000 0.000000 0.000000 -3.132835 -28.931865 1.157058 -0.847247 -0.175910 -0.132539 8.535974 -0.986842 -3.418367 1.263662 -1.138528 -0.494014 0.000000 0.000000 0.000000 2.296941 1.017497 -1.292262 0.315794 -2.700015 1.183384 0.000000 0.000000 0.000000 1.411045 0.009188 -1.127782 -0.997147 -4.724647 2.077747 -54.290954 -8.450745 -49.891072 -147.284533 -81.102868 -143.120399 0.000000 0.000000 0.000000 2.251367 2.943370 -1.529113 2.026965 5.453705 9.755957 -47.744576 50.309094 64.083642 101.802781 62.209513 -103.841750 0.000000 0.000000 0.000000 
-8.751734 84.099388 11.474415 0.000000 0.000000 0.000000 -2.598128 -29.948050 1.142949 -40.753901 19.888094 26.372443 48.576087 0.217697 2.776832 -7.022824 -2.423723 -12.381000 0.000000 0.000000 0.000000 -3.428771 -28.802245 0.949984 -38.192341 -2.285801 -20.793625 58.313990 -2.264940 1.723997 -20.160825 -4.030865 17.647703 0.000000 0.000000 0.000000 -3.108502 -28.902325 1.153708 -0.847899 -0.176039 -0.133258 8.585814 -0.950905 -3.428970 1.269047 -1.127883 -0.482345 0.000000 0.000000 0.000000 2.302158 1.036747 -1.289610 0.283770 -2.689477 1.198818 0.000000 0.000000 0.000000 1.412035 0.026730 -1.128277 -0.959833 -4.739956 2.328938 -54.399482 -8.293568 -49.981060 -148.422142 -81.034525 -144.304289 0.000000 0.000000 0.000000 2.245918 2.963219 -1.525775 2.042980 5.411766 9.794316 -47.700696 50.245532 64.023939 101.988364 62.101173 -104.061436 0.000000 0.000000 0.000000 
-8.741918 84.076141 11.457123 0.000000 0.000000 0.000000 -2.579638 -29.906052 1.135446 -40.898217 19.884149 26.441411 48.696148 0.205786 2.765753 -7.064459 -2.444396 -12.367674 0.000000 0.000000 0.000000 -3.410070 -28.764061 0.942696 -38.224218 -2.322255 -20.796422 58.354664 -2.263221 1.726048 -20.230580 -4.039008 17.660658 0.000000 0.000000 0.000000 -3.082624 -28.872716 1.148057 -0.848537 -0.175829 -0.133656 8.644217 -0.908379 -3.448281 1.278600 -1.110442 -0.476801 0.000000 0.000000 0.000000 2.303665 1.061967 -1.292256 0.249707 -2.679952 1.211946 0.000000 0.000000 0.000000 1.413991 0.050955 -1.131611 -0.924206 -4.761544 2.576400 -54.550067 -8.173325 -50.073678 -149.623217 -80.987179 -145.558571 0.000000 0.000000 0.000000 2.242931 2.990123 -1.527067 2.046885 5.355979 9.878532 -47.606084 50.142017 63.938576 102.295006 61.955253 -104.402966 0.000000 0.000000 0.000000 
